<?xml version="1.0" encoding="UTF-8" standalone="no"?>
<svg
   xmlns:dc="http://purl.org/dc/elements/1.1/"
   xmlns:cc="http://creativecommons.org/ns#"
   xmlns:rdf="http://www.w3.org/1999/02/22-rdf-syntax-ns#"
   xmlns:svg="http://www.w3.org/2000/svg"
   xmlns="http://www.w3.org/2000/svg"
   xmlns:sodipodi="http://sodipodi.sourceforge.net/DTD/sodipodi-0.dtd"
   xmlns:inkscape="http://www.inkscape.org/namespaces/inkscape"
   id="svg1566"
   version="1.1"
   viewBox="0 0 70 70.000001"
   height="70mm"
   width="70mm"
   sodipodi:docname="djangocph.svg"
   inkscape:version="0.92.3 (2405546, 2018-03-11)">
  <sodipodi:namedview
     pagecolor="#ffffff"
     bordercolor="#666666"
     borderopacity="1"
     objecttolerance="10"
     gridtolerance="10"
     guidetolerance="10"
     inkscape:pageopacity="0"
     inkscape:pageshadow="2"
     inkscape:window-width="1299"
     inkscape:window-height="713"
     id="namedview2792"
     showgrid="false"
     inkscape:zoom="1.889881"
     inkscape:cx="147.5178"
     inkscape:cy="132.28346"
     inkscape:window-x="67"
     inkscape:window-y="27"
     inkscape:window-maximized="1"
     inkscape:current-layer="layer1" />
  <defs
     id="defs1560" />
  <metadata
     id="metadata1563">
    <rdf:RDF>
      <cc:Work
         rdf:about="">
        <dc:format>image/svg+xml</dc:format>
        <dc:type
           rdf:resource="http://purl.org/dc/dcmitype/StillImage" />
        <dc:title />
      </cc:Work>
    </rdf:RDF>
  </metadata>
  <g
     transform="translate(-79.542367,-79.291176)"
     id="layer1">
    <path
       id="path36"
       style="fill:#0c090d;fill-opacity:1;fill-rule:nonzero;stroke:none;stroke-width:0.35277775"
       d="m 121.84844,88.398077 h -1.65171 v -1.859492 h 1.65171 z" />
    <path
       id="path38"
       style="fill:#4f345a;fill-opacity:1;fill-rule:nonzero;stroke:none;stroke-width:0.35277775"
       d="m 124.33587,117.65569 h -11.7034 V 97.896603 h 11.7034 z" />
    <path
       id="path40"
       style="fill:#274c77;fill-opacity:1;fill-rule:nonzero;stroke:none;stroke-width:0.35277775"
       d="m 124.3775,97.622856 h -11.78595 v -2.85151 h 11.78595 z" />
    <path
       id="path42"
       style="fill:#53b3cb;fill-opacity:1;fill-rule:nonzero;stroke:none;stroke-width:0.35277775"
       d="M 138.2399,117.65569 H 124.68971 V 100.23764 H 138.2399 Z" />
    <path
       id="path44"
       style="fill:#e01a4f;fill-opacity:1;fill-rule:nonzero;stroke:none;stroke-width:0.35277775"
       d="m 112.34884,117.65569 h -9.5691 V 98.380263 h 9.5691 z" />
    <path
       id="path46"
       style="fill:#53b3cb;fill-opacity:1;fill-rule:nonzero;stroke:none;stroke-width:0.35277775"
       d="m 112.28287,117.57737 h -9.43363 v -10.47609 h 9.43363 z" />
    <g
       transform="matrix(0.35277777,0,0,-0.35277777,102.74481,107.12213)"
       id="g48">
      <path
         id="path50"
         style="fill:#53b3cb;fill-opacity:1;fill-rule:nonzero;stroke:none"
         d="M 0,0 H 3.416 V 6.828 H 1.267 L 11.533,24.506 21.435,6.828 h -1.92 V 0 h 7.709" />
    </g>
    <path
       id="path52"
       style="fill:#fcfdfd;fill-opacity:1;fill-rule:nonzero;stroke:none;stroke-width:0.35277775"
       d="m 110.97018,110.46749 h -1.68663 v -2.48426 h 1.68663 z" />
    <g
       transform="matrix(0.35277777,0,0,-0.35277777,110.12662,107.97306)"
       id="g54">
      <path
         id="path56"
         style="fill:#fcfdfd;fill-opacity:1;fill-rule:nonzero;stroke:none"
         d="M 0,0 V -7.042" />
    </g>
    <g
       transform="matrix(0.35277777,0,0,-0.35277777,111.00581,109.0507)"
       id="g58">
      <path
         id="path60"
         style="fill:#fcfdfd;fill-opacity:1;fill-rule:nonzero;stroke:none"
         d="M 0,0 H -4.877" />
    </g>
    <path
       id="path62"
       style="fill:#fcfdfd;fill-opacity:1;fill-rule:nonzero;stroke:none;stroke-width:0.35277775"
       d="m 108.30248,110.46749 h -1.68593 v -2.48426 h 1.68593 z" />
    <g
       transform="matrix(0.35277777,0,0,-0.35277777,107.45909,107.97306)"
       id="g64">
      <path
         id="path66"
         style="fill:#fcfdfd;fill-opacity:1;fill-rule:nonzero;stroke:none"
         d="M 0,0 V -7.042" />
    </g>
    <g
       transform="matrix(0.35277777,0,0,-0.35277777,108.32103,109.0507)"
       id="g68">
      <path
         id="path70"
         style="fill:#fcfdfd;fill-opacity:1;fill-rule:nonzero;stroke:none"
         d="M 0,0 H -4.88" />
    </g>
    <path
       id="path72"
       style="fill:#fcfdfd;fill-opacity:1;fill-rule:nonzero;stroke:none;stroke-width:0.35277775"
       d="m 115.32416,113.49573 h -1.68557 v -2.48391 h 1.68557 z" />
    <g
       transform="matrix(0.35277777,0,0,-0.35277777,114.48088,111.00304)"
       id="g74">
      <path
         id="path76"
         style="fill:#fcfdfd;fill-opacity:1;fill-rule:nonzero;stroke:none"
         d="M 0,0 V -7.04" />
    </g>
    <g
       transform="matrix(0.35277777,0,0,-0.35277777,115.34318,112.07929)"
       id="g78">
      <path
         id="path80"
         style="fill:#fcfdfd;fill-opacity:1;fill-rule:nonzero;stroke:none"
         d="M 0,0 H -4.88" />
    </g>
    <path
       id="path82"
       style="fill:#fcfdfd;fill-opacity:1;fill-rule:nonzero;stroke:none;stroke-width:0.35277775"
       d="m 118.07795,113.49573 h -1.68557 v -2.48391 h 1.68557 z" />
    <g
       transform="matrix(0.35277777,0,0,-0.35277777,117.23453,111.00304)"
       id="g84">
      <path
         id="path86"
         style="fill:#fcfdfd;fill-opacity:1;fill-rule:nonzero;stroke:none"
         d="M 0,0 V -7.04" />
    </g>
    <g
       transform="matrix(0.35277777,0,0,-0.35277777,118.0965,112.07929)"
       id="g88">
      <path
         id="path90"
         style="fill:#fcfdfd;fill-opacity:1;fill-rule:nonzero;stroke:none"
         d="M 0,0 H -4.879" />
    </g>
    <path
       id="path92"
       style="fill:#fcfdfd;fill-opacity:1;fill-rule:nonzero;stroke:none;stroke-width:0.35277775"
       d="m 120.83173,113.49573 h -1.68593 v -2.48391 h 1.68593 z" />
    <g
       transform="matrix(0.35277777,0,0,-0.35277777,119.98891,111.00304)"
       id="g94">
      <path
         id="path96"
         style="fill:#fcfdfd;fill-opacity:1;fill-rule:nonzero;stroke:none"
         d="M 0,0 V -7.04" />
    </g>
    <g
       transform="matrix(0.35277777,0,0,-0.35277777,120.85018,112.07929)"
       id="g98">
      <path
         id="path100"
         style="fill:#fcfdfd;fill-opacity:1;fill-rule:nonzero;stroke:none"
         d="M 0,0 H -4.879" />
    </g>
    <path
       id="path102"
       style="fill:#fcfdfd;fill-opacity:1;fill-rule:nonzero;stroke:none;stroke-width:0.35277775"
       d="m 115.0497,109.74359 h -1.68769 v -2.48285 h 1.68769 z" />
    <g
       transform="matrix(0.35277777,0,0,-0.35277777,114.20596,107.24962)"
       id="g104">
      <path
         id="path106"
         style="fill:#fcfdfd;fill-opacity:1;fill-rule:nonzero;stroke:none"
         d="M 0,0 V -7.043" />
    </g>
    <g
       transform="matrix(0.35277777,0,0,-0.35277777,115.06621,108.3269)"
       id="g108">
      <path
         id="path110"
         style="fill:#fcfdfd;fill-opacity:1;fill-rule:nonzero;stroke:none"
         d="M 0,0 H -4.875" />
    </g>
    <path
       id="path112"
       style="fill:#fcfdfd;fill-opacity:1;fill-rule:nonzero;stroke:none;stroke-width:0.35277775"
       d="m 117.77914,109.74359 h -1.68451 v -2.48285 h 1.68451 z" />
    <g
       transform="matrix(0.35277777,0,0,-0.35277777,116.93689,107.24962)"
       id="g114">
      <path
         id="path116"
         style="fill:#fcfdfd;fill-opacity:1;fill-rule:nonzero;stroke:none"
         d="M 0,0 V -7.043" />
    </g>
    <g
       transform="matrix(0.35277777,0,0,-0.35277777,117.82056,108.3269)"
       id="g118">
      <path
         id="path120"
         style="fill:#fcfdfd;fill-opacity:1;fill-rule:nonzero;stroke:none"
         d="M 0,0 H -4.877" />
    </g>
    <path
       id="path122"
       style="fill:#fcfdfd;fill-opacity:1;fill-rule:nonzero;stroke:none;stroke-width:0.35277775"
       d="m 120.50964,109.74359 h -1.68557 v -2.48285 h 1.68557 z" />
    <g
       transform="matrix(0.35277777,0,0,-0.35277777,119.66746,107.24962)"
       id="g124">
      <path
         id="path126"
         style="fill:#fcfdfd;fill-opacity:1;fill-rule:nonzero;stroke:none"
         d="M 0,0 V -7.043" />
    </g>
    <g
       transform="matrix(0.35277777,0,0,-0.35277777,120.50636,108.3269)"
       id="g128">
      <path
         id="path130"
         style="fill:#fcfdfd;fill-opacity:1;fill-rule:nonzero;stroke:none"
         d="M 0,0 H -4.883" />
    </g>
    <path
       id="path132"
       style="fill:#fcfdfd;fill-opacity:1;fill-rule:nonzero;stroke:none;stroke-width:0.35277775"
       d="m 123.24155,109.74359 h -1.68557 v -2.48285 h 1.68557 z" />
    <g
       transform="matrix(0.35277777,0,0,-0.35277777,122.39806,107.24962)"
       id="g134">
      <path
         id="path136"
         style="fill:#fcfdfd;fill-opacity:1;fill-rule:nonzero;stroke:none"
         d="M 0,0 V -7.043" />
    </g>
    <g
       transform="matrix(0.35277777,0,0,-0.35277777,123.26036,108.3269)"
       id="g138">
      <path
         id="path140"
         style="fill:#fcfdfd;fill-opacity:1;fill-rule:nonzero;stroke:none"
         d="M 0,0 H -4.878" />
    </g>
    <path
       id="path142"
       style="fill:#fcfdfd;fill-opacity:1;fill-rule:nonzero;stroke:none;stroke-width:0.35277775"
       d="m 115.0497,101.47871 h -1.68769 v -2.48356 h 1.68769 z" />
    <g
       transform="matrix(0.35277777,0,0,-0.35277777,114.20596,98.98482)"
       id="g144">
      <path
         id="path146"
         style="fill:#fcfdfd;fill-opacity:1;fill-rule:nonzero;stroke:none"
         d="M 0,0 V -7.041" />
    </g>
    <g
       transform="matrix(0.35277777,0,0,-0.35277777,115.06621,100.06178)"
       id="g148">
      <path
         id="path150"
         style="fill:#fcfdfd;fill-opacity:1;fill-rule:nonzero;stroke:none"
         d="M 0,0 H -4.875" />
    </g>
    <path
       id="path152"
       style="fill:#fcfdfd;fill-opacity:1;fill-rule:nonzero;stroke:none;stroke-width:0.35277775"
       d="m 117.77914,101.47871 h -1.68451 v -2.48356 h 1.68451 z" />
    <g
       transform="matrix(0.35277777,0,0,-0.35277777,116.93689,98.98482)"
       id="g154">
      <path
         id="path156"
         style="fill:#fcfdfd;fill-opacity:1;fill-rule:nonzero;stroke:none"
         d="M 0,0 V -7.041" />
    </g>
    <g
       transform="matrix(0.35277777,0,0,-0.35277777,117.82056,100.06178)"
       id="g158">
      <path
         id="path160"
         style="fill:#fcfdfd;fill-opacity:1;fill-rule:nonzero;stroke:none"
         d="M 0,0 H -4.877" />
    </g>
    <path
       id="path162"
       style="fill:#fcfdfd;fill-opacity:1;fill-rule:nonzero;stroke:none;stroke-width:0.35277775"
       d="m 120.50964,101.47871 h -1.68557 v -2.48356 h 1.68557 z" />
    <g
       transform="matrix(0.35277777,0,0,-0.35277777,119.66746,98.98482)"
       id="g164">
      <path
         id="path166"
         style="fill:#fcfdfd;fill-opacity:1;fill-rule:nonzero;stroke:none"
         d="M 0,0 V -7.041" />
    </g>
    <g
       transform="matrix(0.35277777,0,0,-0.35277777,120.50636,100.06178)"
       id="g168">
      <path
         id="path170"
         style="fill:#fcfdfd;fill-opacity:1;fill-rule:nonzero;stroke:none"
         d="M 0,0 H -4.883" />
    </g>
    <path
       id="path172"
       style="fill:#fcfdfd;fill-opacity:1;fill-rule:nonzero;stroke:none;stroke-width:0.35277775"
       d="m 123.24155,101.47871 h -1.68557 v -2.48356 h 1.68557 z" />
    <g
       transform="matrix(0.35277777,0,0,-0.35277777,122.39806,98.98482)"
       id="g174">
      <path
         id="path176"
         style="fill:#fcfdfd;fill-opacity:1;fill-rule:nonzero;stroke:none"
         d="M 0,0 V -7.041" />
    </g>
    <g
       transform="matrix(0.35277777,0,0,-0.35277777,123.26036,100.06178)"
       id="g178">
      <path
         id="path180"
         style="fill:#fcfdfd;fill-opacity:1;fill-rule:nonzero;stroke:none"
         d="M 0,0 H -4.878" />
    </g>
    <path
       id="path182"
       style="fill:#fcfdfd;fill-opacity:1;fill-rule:nonzero;stroke:none;stroke-width:0.35277775"
       d="m 115.0497,105.548 h -1.68769 v -2.4832 h 1.68769 z" />
    <g
       transform="matrix(0.35277777,0,0,-0.35277777,114.20596,103.05453)"
       id="g184">
      <path
         id="path186"
         style="fill:#fcfdfd;fill-opacity:1;fill-rule:nonzero;stroke:none"
         d="M 0,0 V -7.041" />
    </g>
    <g
       transform="matrix(0.35277777,0,0,-0.35277777,115.06621,104.13146)"
       id="g188">
      <path
         id="path190"
         style="fill:#fcfdfd;fill-opacity:1;fill-rule:nonzero;stroke:none"
         d="M 0,0 H -4.875" />
    </g>
    <path
       id="path192"
       style="fill:#fcfdfd;fill-opacity:1;fill-rule:nonzero;stroke:none;stroke-width:0.35277775"
       d="m 117.77914,105.548 h -1.68451 v -2.4832 h 1.68451 z" />
    <g
       transform="matrix(0.35277777,0,0,-0.35277777,116.93689,103.05453)"
       id="g194">
      <path
         id="path196"
         style="fill:#fcfdfd;fill-opacity:1;fill-rule:nonzero;stroke:none"
         d="M 0,0 V -7.041" />
    </g>
    <g
       transform="matrix(0.35277777,0,0,-0.35277777,117.82056,104.13146)"
       id="g198">
      <path
         id="path200"
         style="fill:#fcfdfd;fill-opacity:1;fill-rule:nonzero;stroke:none"
         d="M 0,0 H -4.877" />
    </g>
    <path
       id="path202"
       style="fill:#fcfdfd;fill-opacity:1;fill-rule:nonzero;stroke:none;stroke-width:0.35277775"
       d="m 120.50964,105.548 h -1.68557 v -2.4832 h 1.68557 z" />
    <g
       transform="matrix(0.35277777,0,0,-0.35277777,119.66746,103.05453)"
       id="g204">
      <path
         id="path206"
         style="fill:#fcfdfd;fill-opacity:1;fill-rule:nonzero;stroke:none"
         d="M 0,0 V -7.041" />
    </g>
    <g
       transform="matrix(0.35277777,0,0,-0.35277777,120.50636,104.13146)"
       id="g208">
      <path
         id="path210"
         style="fill:#fcfdfd;fill-opacity:1;fill-rule:nonzero;stroke:none"
         d="M 0,0 H -4.883" />
    </g>
    <path
       id="path212"
       style="fill:#fcfdfd;fill-opacity:1;fill-rule:nonzero;stroke:none;stroke-width:0.35277775"
       d="m 123.24155,105.548 h -1.68557 v -2.4832 h 1.68557 z" />
    <g
       transform="matrix(0.35277777,0,0,-0.35277777,122.39806,103.05453)"
       id="g214">
      <path
         id="path216"
         style="fill:#fcfdfd;fill-opacity:1;fill-rule:nonzero;stroke:none"
         d="M 0,0 V -7.041" />
    </g>
    <g
       transform="matrix(0.35277777,0,0,-0.35277777,123.26036,104.13146)"
       id="g218">
      <path
         id="path220"
         style="fill:#fcfdfd;fill-opacity:1;fill-rule:nonzero;stroke:none"
         d="M 0,0 H -4.878" />
    </g>
    <path
       id="path222"
       style="fill:#fcfdfd;fill-opacity:1;fill-rule:nonzero;stroke:none;stroke-width:0.35277775"
       d="m 105.53035,110.46749 h -1.68557 v -2.48426 h 1.68557 z" />
    <g
       transform="matrix(0.35277777,0,0,-0.35277777,104.68855,107.97306)"
       id="g224">
      <path
         id="path226"
         style="fill:#fcfdfd;fill-opacity:1;fill-rule:nonzero;stroke:none"
         d="M 0,0 V -7.042" />
    </g>
    <g
       transform="matrix(0.35277777,0,0,-0.35277777,105.56704,109.0507)"
       id="g228">
      <path
         id="path230"
         style="fill:#fcfdfd;fill-opacity:1;fill-rule:nonzero;stroke:none"
         d="M 0,0 H -4.879" />
    </g>
    <g
       transform="matrix(0.35277777,0,0,-0.35277777,111.93496,93.491622)"
       id="g232">
      <path
         id="path234"
         style="fill:#0c090d;fill-opacity:1;fill-rule:nonzero;stroke:none"
         d="M 0,0 H -0.586 V 1.561 H -5.268 V 0 h -0.586 v -1.17 h 0.586 v -12.688 h 4.682 V -1.17 H 0 Z" />
    </g>
    <g
       transform="matrix(0.35277777,0,0,-0.35277777,107.27787,100.24709)"
       id="g236">
      <path
         id="path238"
         style="fill:#fcfdfd;fill-opacity:1;fill-rule:nonzero;stroke:none"
         d="m 0,0 c 0,-0.713 -0.581,-1.291 -1.291,-1.291 -0.717,0 -1.293,0.578 -1.293,1.291 0,0.714 0.576,1.292 1.293,1.292 C -0.581,1.292 0,0.714 0,0" />
    </g>
    <path
       id="path240"
       style="fill:#fcfdfd;fill-opacity:1;fill-rule:nonzero;stroke:none;stroke-width:0.35277775"
       d="m 107.33798,103.37101 h -1.03293 v -1.44604 h 1.03293 z" />
    <g
       transform="matrix(0.35277777,0,0,-0.35277777,106.82173,101.95933)"
       id="g242">
      <path
         id="path244"
         style="fill:#fcfdfd;fill-opacity:1;fill-rule:nonzero;stroke:none"
         d="M 0,0 V -4.098" />
    </g>
    <path
       id="path246"
       style="fill:#fcfdfd;fill-opacity:1;fill-rule:nonzero;stroke:none;stroke-width:0.35277775"
       d="m 105.22272,106.60669 h -1.03328 v -1.44533 h 1.03328 z" />
    <g
       transform="matrix(0.35277777,0,0,-0.35277777,104.70714,105.19565)"
       id="g248">
      <path
         id="path250"
         style="fill:#fcfdfd;fill-opacity:1;fill-rule:nonzero;stroke:none"
         d="M 0,0 V -4.095" />
    </g>
    <path
       id="path252"
       style="fill:#fcfdfd;fill-opacity:1;fill-rule:nonzero;stroke:none;stroke-width:0.35277775"
       d="m 107.25367,106.60669 h -1.03258 v -1.44533 h 1.03258 z" />
    <g
       transform="matrix(0.35277777,0,0,-0.35277777,106.73734,105.19565)"
       id="g254">
      <path
         id="path256"
         style="fill:#fcfdfd;fill-opacity:1;fill-rule:nonzero;stroke:none"
         d="M 0,0 V -4.095" />
    </g>
    <path
       id="path258"
       style="fill:#fcfdfd;fill-opacity:1;fill-rule:nonzero;stroke:none;stroke-width:0.35277775"
       d="m 109.35375,106.60669 h -1.03293 v -1.44533 h 1.03293 z" />
    <g
       transform="matrix(0.35277777,0,0,-0.35277777,108.83746,105.19565)"
       id="g260">
      <path
         id="path262"
         style="fill:#fcfdfd;fill-opacity:1;fill-rule:nonzero;stroke:none"
         d="M 0,0 V -4.095" />
    </g>
    <path
       id="path264"
       style="fill:#fcfdfd;fill-opacity:1;fill-rule:nonzero;stroke:none;stroke-width:0.35277775"
       d="m 112.07896,117.12581 h -1.68557 v -4.85739 h 1.68557 z" />
    <g
       transform="matrix(0.35277777,0,0,-0.35277777,111.23526,112.26429)"
       id="g266">
      <path
         id="path268"
         style="fill:#fcfdfd;fill-opacity:1;fill-rule:nonzero;stroke:none"
         d="M 0,0 V -13.768" />
    </g>
    <g
       transform="matrix(0.35277777,0,0,-0.35277777,112.10686,114.35065)"
       id="g270">
      <path
         id="path272"
         style="fill:#fcfdfd;fill-opacity:1;fill-rule:nonzero;stroke:none"
         d="M 0,0 H -4.88" />
    </g>
    <path
       id="path274"
       style="fill:#fcfdfd;fill-opacity:1;fill-rule:nonzero;stroke:none;stroke-width:0.35277775"
       d="m 109.80672,117.12581 h -1.68663 v -4.85739 h 1.68663 z" />
    <g
       transform="matrix(0.35277777,0,0,-0.35277777,108.96355,112.26429)"
       id="g276">
      <path
         id="path278"
         style="fill:#fcfdfd;fill-opacity:1;fill-rule:nonzero;stroke:none"
         d="M 0,0 V -13.768" />
    </g>
    <g
       transform="matrix(0.35277777,0,0,-0.35277777,109.83483,114.35065)"
       id="g280">
      <path
         id="path282"
         style="fill:#fcfdfd;fill-opacity:1;fill-rule:nonzero;stroke:none"
         d="M 0,0 H -4.877" />
    </g>
    <path
       id="path284"
       style="fill:#fcfdfd;fill-opacity:1;fill-rule:nonzero;stroke:none;stroke-width:0.35277775"
       d="m 107.53483,117.12581 h -1.68522 v -4.85739 h 1.68522 z" />
    <g
       transform="matrix(0.35277777,0,0,-0.35277777,106.69254,112.26429)"
       id="g286">
      <path
         id="path288"
         style="fill:#fcfdfd;fill-opacity:1;fill-rule:nonzero;stroke:none"
         d="M 0,0 V -13.768" />
    </g>
    <g
       transform="matrix(0.35277777,0,0,-0.35277777,107.56348,114.35065)"
       id="g290">
      <path
         id="path292"
         style="fill:#fcfdfd;fill-opacity:1;fill-rule:nonzero;stroke:none"
         d="M 0,0 H -4.879" />
    </g>
    <path
       id="path294"
       style="fill:#fcfdfd;fill-opacity:1;fill-rule:nonzero;stroke:none;stroke-width:0.35277775"
       d="m 105.33173,117.60806 h -1.68592 v -4.85105 h 1.68592 z" />
    <g
       transform="matrix(0.35277777,0,0,-0.35277777,105.36034,113.66266)"
       id="g296">
      <path
         id="path298"
         style="fill:#fcfdfd;fill-opacity:1;fill-rule:nonzero;stroke:none"
         d="M 0,0 H -4.879" />
    </g>
    <g
       transform="matrix(0.35277777,0,0,-0.35277777,124.53332,94.799396)"
       id="g300"
       style="fill:#6096ba;fill-opacity:1">
      <path
         id="path302"
         style="fill:#6096ba;fill-opacity:1;fill-rule:nonzero;stroke:none"
         d="m 0,0 h -34.151 l 1.17,18.146 h 31.616 z" />
    </g>
    <g
       transform="matrix(0.35277777,0,0,-0.35277777,115.81276,96.837503)"
       id="g304">
      <path
         id="path306"
         style="fill:#fcfdfd;fill-opacity:1;fill-rule:nonzero;stroke:none"
         d="M 0,0 H -4.918 V 3.761 H -2.527 0 Z" />
    </g>
    <g
       transform="matrix(0.35277777,0,0,-0.35277777,114.8936,96.819573)"
       id="g308">
      <path
         id="path310"
         style="fill:#fcfdfd;fill-opacity:1;fill-rule:nonzero;stroke:none"
         d="M 0,0 V 3.761" />
    </g>
    <g
       transform="matrix(0.35277777,0,0,-0.35277777,119.2799,96.837503)"
       id="g312">
      <path
         id="path314"
         style="fill:#fcfdfd;fill-opacity:1;fill-rule:nonzero;stroke:none"
         d="M 0,0 H -4.915 V 3.761 H -2.524 0 Z" />
    </g>
    <g
       transform="matrix(0.35277777,0,0,-0.35277777,118.36211,96.819573)"
       id="g316">
      <path
         id="path318"
         style="fill:#fcfdfd;fill-opacity:1;fill-rule:nonzero;stroke:none"
         d="M 0,0 V 3.761" />
    </g>
    <g
       transform="matrix(0.35277777,0,0,-0.35277777,122.71464,96.837503)"
       id="g320">
      <path
         id="path322"
         style="fill:#fcfdfd;fill-opacity:1;fill-rule:nonzero;stroke:none"
         d="M 0,0 H -4.914 V 3.761 H -2.524 0 Z" />
    </g>
    <g
       transform="matrix(0.35277777,0,0,-0.35277777,121.79654,96.819573)"
       id="g324">
      <path
         id="path326"
         style="fill:#fcfdfd;fill-opacity:1;fill-rule:nonzero;stroke:none"
         d="M 0,0 V 3.761" />
    </g>
    <path
       id="path328"
       style="fill:#fcfdfd;fill-opacity:1;fill-rule:nonzero;stroke:none;stroke-width:0.35277775"
       d="m 123.62679,117.60806 h -1.68663 v -6.29779 h 1.68663 z" />
    <g
       transform="matrix(0.35277777,0,0,-0.35277777,123.67272,113.2496)"
       id="g330">
      <path
         id="path332"
         style="fill:#fcfdfd;fill-opacity:1;fill-rule:nonzero;stroke:none"
         d="M 0,0 H -4.878" />
    </g>
    <path
       id="path334"
       style="fill:#fcfdfd;fill-opacity:1;fill-rule:nonzero;stroke:none;stroke-width:0.35277775"
       d="m 115.51466,117.38087 h -1.78999 v -1.8602 h 1.78999 z" />
    <path
       id="path336"
       style="fill:#fcfdfd;fill-opacity:1;fill-rule:nonzero;stroke:none;stroke-width:0.35277775"
       d="m 120.95344,117.38087 h -1.7907 v -1.8602 h 1.7907 z" />
    <path
       id="path338"
       style="fill:#fcfdfd;fill-opacity:1;fill-rule:nonzero;stroke:none;stroke-width:0.35277775"
       d="m 118.13051,117.65569 h -1.78964 v -2.13537 h 1.78964 z" />
    <g
       transform="matrix(0.35277777,0,0,-0.35277777,136.84022,114.73409)"
       id="g340">
      <path
         id="path342"
         style="fill:#fcfdfd;fill-opacity:1;fill-rule:nonzero;stroke:none"
         d="m 0,0 c 0,2.749 -2.306,4.999 -5.15,4.999 -2.846,0 -5.151,-2.26 -5.151,-5.011 0,-0.015 0.002,-0.073 0.002,-0.073 h 0.002 V -8.282 H 0.044 v 8.197 H -0.002 C -0.002,-0.085 0,-0.018 0,0" />
    </g>
    <g
       transform="matrix(0.35277777,0,0,-0.35277777,135.43775,94.731526)"
       id="g344">
      <path
         id="path346"
         style="fill:#0c090d;fill-opacity:1;fill-rule:nonzero;stroke:none"
         d="M 0,0 V 0.978 H -0.534 V 2.345 H 0 v 2.34 H 3.752 V 2.345 H 4.283 V 0.978 H 3.752 V 0 Z" />
    </g>
    <g
       transform="matrix(0.35277777,0,0,-0.35277777,135.27272,94.731526)"
       id="g348">
      <path
         id="path350"
         style="fill:#e01a4f;fill-opacity:1;fill-rule:nonzero;stroke:none"
         d="m 0,0 h 8.587 v -14.635 h 0.587 v -0.973 h -39.616 v 0.973 h 0.778 V 0 h 24.2 z" />
    </g>
    <g
       transform="matrix(0.35277777,0,0,-0.35277777,136.70655,97.787316)"
       id="g352">
      <path
         id="path354"
         style="fill:#fcfdfd;fill-opacity:1;fill-rule:nonzero;stroke:none"
         d="m 0,0 c 0,1.347 -1.091,2.437 -2.438,2.437 -1.346,0 -2.434,-1.09 -2.434,-2.437 0,-0.06 0.002,-0.119 0.007,-0.181 h 0.01 v -3.726 h 4.873 v 3.726 H -0.01 C -0.004,-0.119 0,-0.06 0,0" />
    </g>
    <g
       transform="matrix(0.35277777,0,0,-0.35277777,132.38573,97.787316)"
       id="g356">
      <path
         id="path358"
         style="fill:#fcfdfd;fill-opacity:1;fill-rule:nonzero;stroke:none"
         d="m 0,0 c 0,1.347 -1.094,2.437 -2.437,2.437 -1.348,0 -2.438,-1.09 -2.438,-2.437 0,-0.06 0.008,-0.119 0.01,-0.181 h 0.009 v -3.726 h 4.873 v 3.726 H -0.01 C -0.006,-0.119 0,-0.06 0,0" />
    </g>
    <g
       transform="matrix(0.35277777,0,0,-0.35277777,128.06455,97.787316)"
       id="g360">
      <path
         id="path362"
         style="fill:#fcfdfd;fill-opacity:1;fill-rule:nonzero;stroke:none"
         d="m 0,0 c 0,1.347 -1.09,2.437 -2.439,2.437 -1.346,0 -2.435,-1.09 -2.435,-2.437 0,-0.06 0.004,-0.119 0.009,-0.181 h 0.01 v -3.726 h 4.869 v 3.726 H -0.013 C -0.007,-0.119 0,-0.06 0,0" />
    </g>
    <path
       id="path364"
       style="fill:#fcfdfd;fill-opacity:1;fill-rule:nonzero;stroke:none;stroke-width:0.35277775"
       d="m 127.50911,103.85431 h -1.59914 v -2.5661 h 1.59914 z" />
    <g
       transform="matrix(0.35277777,0,0,-0.35277777,126.7089,101.25826)"
       id="g366">
      <path
         id="path368"
         style="fill:#fcfdfd;fill-opacity:1;fill-rule:nonzero;stroke:none"
         d="M 0,0 V -7.27" />
    </g>
    <g
       transform="matrix(0.35277777,0,0,-0.35277777,127.5278,102.23528)"
       id="g370">
      <path
         id="path372"
         style="fill:#fcfdfd;fill-opacity:1;fill-rule:nonzero;stroke:none"
         d="M 0,0 H -4.485" />
    </g>
    <path
       id="path374"
       style="fill:#fcfdfd;fill-opacity:1;fill-rule:nonzero;stroke:none;stroke-width:0.35277775"
       d="m 130.65059,103.85431 h -1.59949 v -2.5661 h 1.59949 z" />
    <g
       transform="matrix(0.35277777,0,0,-0.35277777,129.85081,101.25826)"
       id="g376">
      <path
         id="path378"
         style="fill:#fcfdfd;fill-opacity:1;fill-rule:nonzero;stroke:none"
         d="M 0,0 V -7.27" />
    </g>
    <g
       transform="matrix(0.35277777,0,0,-0.35277777,130.62597,102.23528)"
       id="g380">
      <path
         id="path382"
         style="fill:#fcfdfd;fill-opacity:1;fill-rule:nonzero;stroke:none"
         d="M 0,0 H -4.294" />
    </g>
    <path
       id="path384"
       style="fill:#fcfdfd;fill-opacity:1;fill-rule:nonzero;stroke:none;stroke-width:0.35277775"
       d="m 133.77761,103.85431 h -1.59878 v -2.5661 h 1.59878 z" />
    <g
       transform="matrix(0.35277777,0,0,-0.35277777,132.97759,101.25826)"
       id="g386">
      <path
         id="path388"
         style="fill:#fcfdfd;fill-opacity:1;fill-rule:nonzero;stroke:none"
         d="M 0,0 V -7.27" />
    </g>
    <g
       transform="matrix(0.35277777,0,0,-0.35277777,133.72413,102.23528)"
       id="g390">
      <path
         id="path392"
         style="fill:#fcfdfd;fill-opacity:1;fill-rule:nonzero;stroke:none"
         d="M 0,0 H -4.296" />
    </g>
    <g
       transform="matrix(0.35277777,0,0,-0.35277777,136.91501,103.85446)"
       id="g394">
      <path
         id="path396"
         style="fill:#fcfdfd;fill-opacity:1;fill-rule:nonzero;stroke:none"
         d="m 0,0 -4.534,0.006 0.009,7.27 4.533,-0.005 z" />
    </g>
    <g
       transform="matrix(0.35277777,0,0,-0.35277777,136.11985,101.25826)"
       id="g398">
      <path
         id="path400"
         style="fill:#fcfdfd;fill-opacity:1;fill-rule:nonzero;stroke:none"
         d="M 0,0 -0.011,-7.27" />
    </g>
    <g
       transform="matrix(0.35277777,0,0,-0.35277777,136.90637,102.21908)"
       id="g402">
      <path
         id="path404"
         style="fill:#fcfdfd;fill-opacity:1;fill-rule:nonzero;stroke:none"
         d="M 0,0 -4.576,0.005" />
    </g>
    <path
       id="path406"
       style="fill:#fcfdfd;fill-opacity:1;fill-rule:nonzero;stroke:none;stroke-width:0.35277775"
       d="m 127.50911,107.85834 h -1.59914 v -2.5654 h 1.59914 z" />
    <g
       transform="matrix(0.35277777,0,0,-0.35277777,126.7089,105.26282)"
       id="g408">
      <path
         id="path410"
         style="fill:#fcfdfd;fill-opacity:1;fill-rule:nonzero;stroke:none"
         d="M 0,0 V -7.272" />
    </g>
    <g
       transform="matrix(0.35277777,0,0,-0.35277777,127.5278,106.22745)"
       id="g412">
      <path
         id="path414"
         style="fill:#fcfdfd;fill-opacity:1;fill-rule:nonzero;stroke:none"
         d="M 0,0 H -4.485" />
    </g>
    <path
       id="path416"
       style="fill:#fcfdfd;fill-opacity:1;fill-rule:nonzero;stroke:none;stroke-width:0.35277775"
       d="m 130.65059,107.85834 h -1.59949 v -2.5654 h 1.59949 z" />
    <g
       transform="matrix(0.35277777,0,0,-0.35277777,129.85081,105.26282)"
       id="g418">
      <path
         id="path420"
         style="fill:#fcfdfd;fill-opacity:1;fill-rule:nonzero;stroke:none"
         d="M 0,0 V -7.272" />
    </g>
    <g
       transform="matrix(0.35277777,0,0,-0.35277777,130.62597,106.22745)"
       id="g422">
      <path
         id="path424"
         style="fill:#fcfdfd;fill-opacity:1;fill-rule:nonzero;stroke:none"
         d="M 0,0 H -4.294" />
    </g>
    <path
       id="path426"
       style="fill:#fcfdfd;fill-opacity:1;fill-rule:nonzero;stroke:none;stroke-width:0.35277775"
       d="m 133.77761,107.85834 h -1.59878 v -2.5654 h 1.59878 z" />
    <g
       transform="matrix(0.35277777,0,0,-0.35277777,132.97759,105.26282)"
       id="g428">
      <path
         id="path430"
         style="fill:#fcfdfd;fill-opacity:1;fill-rule:nonzero;stroke:none"
         d="M 0,0 V -7.272" />
    </g>
    <g
       transform="matrix(0.35277777,0,0,-0.35277777,133.72413,106.22745)"
       id="g432">
      <path
         id="path434"
         style="fill:#fcfdfd;fill-opacity:1;fill-rule:nonzero;stroke:none"
         d="M 0,0 H -4.296" />
    </g>
    <g
       transform="matrix(0.35277777,0,0,-0.35277777,136.91501,107.8587)"
       id="g436">
      <path
         id="path438"
         style="fill:#fcfdfd;fill-opacity:1;fill-rule:nonzero;stroke:none"
         d="M 0,0 -4.534,0.005 -4.525,7.274 0.008,7.271 Z" />
    </g>
    <g
       transform="matrix(0.35277777,0,0,-0.35277777,136.11985,105.26282)"
       id="g440">
      <path
         id="path442"
         style="fill:#fcfdfd;fill-opacity:1;fill-rule:nonzero;stroke:none"
         d="M 0,0 -0.011,-7.272" />
    </g>
    <g
       transform="matrix(0.35277777,0,0,-0.35277777,136.90637,106.22332)"
       id="g444">
      <path
         id="path446"
         style="fill:#fcfdfd;fill-opacity:1;fill-rule:nonzero;stroke:none"
         d="M 0,0 -4.576,0.004" />
    </g>
    <path
       id="path448"
       style="fill:#fcfdfd;fill-opacity:1;fill-rule:nonzero;stroke:none;stroke-width:0.35277775"
       d="m 127.50911,111.9929 h -1.59914 v -2.5654 h 1.59914 z" />
    <g
       transform="matrix(0.35277777,0,0,-0.35277777,126.7089,109.39659)"
       id="g450">
      <path
         id="path452"
         style="fill:#fcfdfd;fill-opacity:1;fill-rule:nonzero;stroke:none"
         d="M 0,0 V -7.272" />
    </g>
    <g
       transform="matrix(0.35277777,0,0,-0.35277777,127.5278,110.3588)"
       id="g454">
      <path
         id="path456"
         style="fill:#fcfdfd;fill-opacity:1;fill-rule:nonzero;stroke:none"
         d="M 0,0 H -4.485" />
    </g>
    <path
       id="path458"
       style="fill:#fcfdfd;fill-opacity:1;fill-rule:nonzero;stroke:none;stroke-width:0.35277775"
       d="m 130.65059,111.9929 h -1.59949 v -2.5654 h 1.59949 z" />
    <g
       transform="matrix(0.35277777,0,0,-0.35277777,129.85081,109.39659)"
       id="g460">
      <path
         id="path462"
         style="fill:#fcfdfd;fill-opacity:1;fill-rule:nonzero;stroke:none"
         d="M 0,0 V -7.272" />
    </g>
    <g
       transform="matrix(0.35277777,0,0,-0.35277777,130.62597,110.3588)"
       id="g464">
      <path
         id="path466"
         style="fill:#fcfdfd;fill-opacity:1;fill-rule:nonzero;stroke:none"
         d="M 0,0 H -4.294" />
    </g>
    <path
       id="path468"
       style="fill:#fcfdfd;fill-opacity:1;fill-rule:nonzero;stroke:none;stroke-width:0.35277775"
       d="m 133.77761,111.9929 h -1.59878 v -2.5654 h 1.59878 z" />
    <g
       transform="matrix(0.35277777,0,0,-0.35277777,132.97759,109.39659)"
       id="g470">
      <path
         id="path472"
         style="fill:#fcfdfd;fill-opacity:1;fill-rule:nonzero;stroke:none"
         d="M 0,0 V -7.272" />
    </g>
    <g
       transform="matrix(0.35277777,0,0,-0.35277777,133.72413,110.3588)"
       id="g474">
      <path
         id="path476"
         style="fill:#fcfdfd;fill-opacity:1;fill-rule:nonzero;stroke:none"
         d="M 0,0 H -4.296" />
    </g>
    <g
       transform="matrix(0.35277777,0,0,-0.35277777,136.91501,111.99314)"
       id="g478">
      <path
         id="path480"
         style="fill:#fcfdfd;fill-opacity:1;fill-rule:nonzero;stroke:none"
         d="m 0,0 -4.534,0.006 0.009,7.27 4.533,-0.004 z" />
    </g>
    <g
       transform="matrix(0.35277777,0,0,-0.35277777,136.11985,109.39659)"
       id="g482">
      <path
         id="path484"
         style="fill:#fcfdfd;fill-opacity:1;fill-rule:nonzero;stroke:none"
         d="M 0,0 -0.011,-7.272" />
    </g>
    <g
       transform="matrix(0.35277777,0,0,-0.35277777,136.90637,110.35707)"
       id="g486">
      <path
         id="path488"
         style="fill:#fcfdfd;fill-opacity:1;fill-rule:nonzero;stroke:none"
         d="M 0,0 -4.576,0.002" />
    </g>
    <path
       id="path490"
       style="fill:#fcfdfd;fill-opacity:1;fill-rule:nonzero;stroke:none;stroke-width:0.35277775"
       d="m 128.17974,117.63981 h -1.99814 v -2.30187 h 1.99814 z" />
    <path
       id="path492"
       style="fill:#fcfdfd;fill-opacity:1;fill-rule:nonzero;stroke:none;stroke-width:0.35277775"
       d="m 131.07816,117.63981 h -1.99778 v -2.30187 h 1.99778 z" />
    <path
       id="path494"
       style="fill:#fcfdfd;fill-opacity:1;fill-rule:nonzero;stroke:none;stroke-width:0.35277775"
       d="m 138.50907,100.23199 h -14.00069 v -0.376057 h 14.00069 z" />
    <path
       id="path496"
       style="fill:#fcfdfd;fill-opacity:1;fill-rule:nonzero;stroke:none;stroke-width:0.35277775"
       d="M 132.76691,113.49291 H 125.076 v -0.27481 h 7.69091 z" />
    <path
       id="path498"
       style="fill:#fcfdfd;fill-opacity:1;fill-rule:nonzero;stroke:none;stroke-width:0.35277775"
       d="m 121.07973,114.73398 h -7.6902 v -0.27517 h 7.6902 z" />
    <path
       id="path500"
       style="fill:#274c77;fill-opacity:1;fill-rule:nonzero;stroke:none;stroke-width:0.35277775"
       d="M 90.934162,117.492 H 102.45095 V 102.68697 H 90.934162 Z" />
    <g
       transform="matrix(0.35277777,0,0,-0.35277777,92.123587,115.00932)"
       id="g502">
      <path
         id="path504"
         style="fill:#fcfdfd;fill-opacity:1;fill-rule:nonzero;stroke:none"
         d="m 0,0 c 0,2.339 1.961,4.253 4.377,4.253 2.42,0 4.375,-1.923 4.375,-4.264 V -0.07 -7.037 h -8.79 V -0.07 H 0 Z" />
    </g>
    <g
       transform="matrix(0.35277777,0,0,-0.35277777,93.313507,98.006423)"
       id="g506">
      <path
         id="path508"
         style="fill:#0c090d;fill-opacity:1;fill-rule:nonzero;stroke:none"
         d="m 0,0 v 0.831 h 0.459 v 1.16 H 0 v 1.99 h -3.182 v -1.99 h -0.46 v -1.16 h 0.46 V 0 Z" />
    </g>
    <g
       transform="matrix(0.35277777,0,0,-0.35277777,93.454759,98.006423)"
       id="g510"
       style="fill:#6096ba;fill-opacity:1">
      <path
         id="path512"
         style="fill:#6096ba;fill-opacity:1;fill-rule:nonzero;stroke:none"
         d="m 0,0 h -7.296 v -12.438 h -0.496 v -0.83 h 33.671 v 0.83 H 25.213 V 0 H 4.646 Z" />
    </g>
    <g
       transform="matrix(0.35277777,0,0,-0.35277777,92.237605,100.60368)"
       id="g514">
      <path
         id="path516"
         style="fill:#fcfdfd;fill-opacity:1;fill-rule:nonzero;stroke:none"
         d="m 0,0 c 0,1.145 0.927,2.07 2.069,2.07 1.143,0 2.073,-0.925 2.073,-2.07 0,-0.054 -0.006,-0.102 -0.008,-0.152 h -0.01 v -3.167 h -4.145 v 3.167 H 0.005 C 0.002,-0.102 0,-0.054 0,0" />
    </g>
    <g
       transform="matrix(0.35277777,0,0,-0.35277777,95.909739,100.60368)"
       id="g518">
      <path
         id="path520"
         style="fill:#fcfdfd;fill-opacity:1;fill-rule:nonzero;stroke:none"
         d="M 0,0 C 0,1.145 0.928,2.07 2.073,2.07 3.217,2.07 4.144,1.145 4.144,0 4.144,-0.054 4.137,-0.102 4.133,-0.152 H 4.128 v -3.167 h -4.142 v 3.167 H 0.008 C 0.004,-0.102 0,-0.054 0,0" />
    </g>
    <g
       transform="matrix(0.35277777,0,0,-0.35277777,99.582893,100.60368)"
       id="g522">
      <path
         id="path524"
         style="fill:#fcfdfd;fill-opacity:1;fill-rule:nonzero;stroke:none"
         d="m 0,0 c 0,1.145 0.926,2.07 2.071,2.07 1.144,0 2.07,-0.925 2.07,-2.07 0,-0.054 0,-0.102 -0.004,-0.152 H 4.126 v -3.167 h -4.144 v 3.167 H 0.01 C 0.005,-0.102 0,-0.054 0,0" />
    </g>
    <path
       id="path526"
       style="fill:#fcfdfd;fill-opacity:1;fill-rule:nonzero;stroke:none;stroke-width:0.35277775"
       d="m 100.05523,105.76073 h 1.35926 v -2.18123 h -1.35926 z" />
    <g
       transform="matrix(0.35277777,0,0,-0.35277777,100.73426,103.55371)"
       id="g528">
      <path
         id="path530"
         style="fill:#fcfdfd;fill-opacity:1;fill-rule:nonzero;stroke:none"
         d="M 0,0 V -6.182" />
    </g>
    <g
       transform="matrix(0.35277777,0,0,-0.35277777,100.03868,104.38535)"
       id="g532">
      <path
         id="path534"
         style="fill:#fcfdfd;fill-opacity:1;fill-rule:nonzero;stroke:none"
         d="M 0,0 H 3.813" />
    </g>
    <path
       id="path536"
       style="fill:#fcfdfd;fill-opacity:1;fill-rule:nonzero;stroke:none;stroke-width:0.35277775"
       d="m 97.385056,105.76073 h 1.359605 v -2.18123 h -1.359605 z" />
    <g
       transform="matrix(0.35277777,0,0,-0.35277777,98.064999,103.55371)"
       id="g538">
      <path
         id="path540"
         style="fill:#fcfdfd;fill-opacity:1;fill-rule:nonzero;stroke:none"
         d="M 0,0 V -6.182" />
    </g>
    <g
       transform="matrix(0.35277777,0,0,-0.35277777,97.405271,104.38535)"
       id="g542">
      <path
         id="path544"
         style="fill:#fcfdfd;fill-opacity:1;fill-rule:nonzero;stroke:none"
         d="M 0,0 H 3.649" />
    </g>
    <path
       id="path546"
       style="fill:#fcfdfd;fill-opacity:1;fill-rule:nonzero;stroke:none;stroke-width:0.35277775"
       d="m 94.726523,105.76073 h 1.359252 v -2.18123 h -1.359252 z" />
    <g
       transform="matrix(0.35277777,0,0,-0.35277777,95.406396,103.55371)"
       id="g548">
      <path
         id="path550"
         style="fill:#fcfdfd;fill-opacity:1;fill-rule:nonzero;stroke:none"
         d="M 0,0 V -6.182" />
    </g>
    <g
       transform="matrix(0.35277777,0,0,-0.35277777,94.771466,104.38535)"
       id="g552">
      <path
         id="path554"
         style="fill:#fcfdfd;fill-opacity:1;fill-rule:nonzero;stroke:none"
         d="M 0,0 H 3.649" />
    </g>
    <g
       transform="matrix(0.35277777,0,0,-0.35277777,92.058817,105.76168)"
       id="g556">
      <path
         id="path558"
         style="fill:#fcfdfd;fill-opacity:1;fill-rule:nonzero;stroke:none"
         d="M 0,0 3.853,0.006 3.848,6.186 -0.005,6.184 Z" />
    </g>
    <g
       transform="matrix(0.35277777,0,0,-0.35277777,92.736115,103.55371)"
       id="g560">
      <path
         id="path562"
         style="fill:#fcfdfd;fill-opacity:1;fill-rule:nonzero;stroke:none"
         d="M 0,0 0.007,-6.182" />
    </g>
    <g
       transform="matrix(0.35277777,0,0,-0.35277777,92.066402,104.36987)"
       id="g564">
      <path
         id="path566"
         style="fill:#fcfdfd;fill-opacity:1;fill-rule:nonzero;stroke:none"
         d="M 0,0 3.893,0.001" />
    </g>
    <path
       id="path568"
       style="fill:#fcfdfd;fill-opacity:1;fill-rule:nonzero;stroke:none;stroke-width:0.35277775"
       d="m 100.05523,109.16397 h 1.35926 v -2.18052 h -1.35926 z" />
    <g
       transform="matrix(0.35277777,0,0,-0.35277777,100.73426,106.95745)"
       id="g570">
      <path
         id="path572"
         style="fill:#fcfdfd;fill-opacity:1;fill-rule:nonzero;stroke:none"
         d="M 0,0 V -6.183" />
    </g>
    <g
       transform="matrix(0.35277777,0,0,-0.35277777,100.03868,107.77808)"
       id="g574">
      <path
         id="path576"
         style="fill:#fcfdfd;fill-opacity:1;fill-rule:nonzero;stroke:none"
         d="M 0,0 H 3.813" />
    </g>
    <path
       id="path578"
       style="fill:#fcfdfd;fill-opacity:1;fill-rule:nonzero;stroke:none;stroke-width:0.35277775"
       d="m 97.385056,109.16397 h 1.359605 v -2.18052 h -1.359605 z" />
    <g
       transform="matrix(0.35277777,0,0,-0.35277777,98.064999,106.95745)"
       id="g580">
      <path
         id="path582"
         style="fill:#fcfdfd;fill-opacity:1;fill-rule:nonzero;stroke:none"
         d="M 0,0 V -6.183" />
    </g>
    <g
       transform="matrix(0.35277777,0,0,-0.35277777,97.405271,107.77808)"
       id="g584">
      <path
         id="path586"
         style="fill:#fcfdfd;fill-opacity:1;fill-rule:nonzero;stroke:none"
         d="M 0,0 H 3.649" />
    </g>
    <path
       id="path588"
       style="fill:#fcfdfd;fill-opacity:1;fill-rule:nonzero;stroke:none;stroke-width:0.35277775"
       d="m 94.726523,109.16397 h 1.359252 v -2.18052 h -1.359252 z" />
    <g
       transform="matrix(0.35277777,0,0,-0.35277777,95.406396,106.95745)"
       id="g590">
      <path
         id="path592"
         style="fill:#fcfdfd;fill-opacity:1;fill-rule:nonzero;stroke:none"
         d="M 0,0 V -6.183" />
    </g>
    <g
       transform="matrix(0.35277777,0,0,-0.35277777,94.771466,107.77808)"
       id="g594">
      <path
         id="path596"
         style="fill:#fcfdfd;fill-opacity:1;fill-rule:nonzero;stroke:none"
         d="M 0,0 H 3.649" />
    </g>
    <g
       transform="matrix(0.35277777,0,0,-0.35277777,92.058817,109.1644)"
       id="g598">
      <path
         id="path600"
         style="fill:#fcfdfd;fill-opacity:1;fill-rule:nonzero;stroke:none"
         d="M 0,0 3.853,0.003 3.848,6.183 -0.005,6.18 Z" />
    </g>
    <g
       transform="matrix(0.35277777,0,0,-0.35277777,92.736115,106.95745)"
       id="g602">
      <path
         id="path604"
         style="fill:#fcfdfd;fill-opacity:1;fill-rule:nonzero;stroke:none"
         d="M 0,0 0.007,-6.183" />
    </g>
    <g
       transform="matrix(0.35277777,0,0,-0.35277777,92.066402,107.77463)"
       id="g606">
      <path
         id="path608"
         style="fill:#fcfdfd;fill-opacity:1;fill-rule:nonzero;stroke:none"
         d="M 0,0 3.893,0.003" />
    </g>
    <path
       id="path610"
       style="fill:#fcfdfd;fill-opacity:1;fill-rule:nonzero;stroke:none;stroke-width:0.35277775"
       d="m 100.05523,112.67799 h 1.35926 v -2.18052 h -1.35926 z" />
    <g
       transform="matrix(0.35277777,0,0,-0.35277777,100.73426,110.47285)"
       id="g612">
      <path
         id="path614"
         style="fill:#fcfdfd;fill-opacity:1;fill-rule:nonzero;stroke:none"
         d="M 0,0 V -6.178" />
    </g>
    <g
       transform="matrix(0.35277777,0,0,-0.35277777,100.03868,111.28932)"
       id="g616">
      <path
         id="path618"
         style="fill:#fcfdfd;fill-opacity:1;fill-rule:nonzero;stroke:none"
         d="M 0,0 H 3.813" />
    </g>
    <path
       id="path620"
       style="fill:#fcfdfd;fill-opacity:1;fill-rule:nonzero;stroke:none;stroke-width:0.35277775"
       d="m 97.385056,112.67799 h 1.359605 v -2.18052 h -1.359605 z" />
    <g
       transform="matrix(0.35277777,0,0,-0.35277777,98.064999,110.47285)"
       id="g622">
      <path
         id="path624"
         style="fill:#fcfdfd;fill-opacity:1;fill-rule:nonzero;stroke:none"
         d="M 0,0 V -6.178" />
    </g>
    <g
       transform="matrix(0.35277777,0,0,-0.35277777,97.405271,111.28932)"
       id="g626">
      <path
         id="path628"
         style="fill:#fcfdfd;fill-opacity:1;fill-rule:nonzero;stroke:none"
         d="M 0,0 H 3.649" />
    </g>
    <path
       id="path630"
       style="fill:#fcfdfd;fill-opacity:1;fill-rule:nonzero;stroke:none;stroke-width:0.35277775"
       d="m 94.726523,112.67799 h 1.359252 v -2.18052 h -1.359252 z" />
    <g
       transform="matrix(0.35277777,0,0,-0.35277777,95.406396,110.47285)"
       id="g632">
      <path
         id="path634"
         style="fill:#fcfdfd;fill-opacity:1;fill-rule:nonzero;stroke:none"
         d="M 0,0 V -6.178" />
    </g>
    <g
       transform="matrix(0.35277777,0,0,-0.35277777,94.771466,111.28932)"
       id="g636">
      <path
         id="path638"
         style="fill:#fcfdfd;fill-opacity:1;fill-rule:nonzero;stroke:none"
         d="M 0,0 H 3.649" />
    </g>
    <g
       transform="matrix(0.35277777,0,0,-0.35277777,92.058817,112.67909)"
       id="g640">
      <path
         id="path642"
         style="fill:#fcfdfd;fill-opacity:1;fill-rule:nonzero;stroke:none"
         d="M 0,0 3.853,0.005 3.848,6.185 -0.005,6.181 Z" />
    </g>
    <g
       transform="matrix(0.35277777,0,0,-0.35277777,92.736115,110.47285)"
       id="g644">
      <path
         id="path646"
         style="fill:#fcfdfd;fill-opacity:1;fill-rule:nonzero;stroke:none"
         d="M 0,0 0.007,-6.178" />
    </g>
    <g
       transform="matrix(0.35277777,0,0,-0.35277777,92.066402,111.28897)"
       id="g648">
      <path
         id="path650"
         style="fill:#fcfdfd;fill-opacity:1;fill-rule:nonzero;stroke:none"
         d="M 0,0 3.893,0.005" />
    </g>
    <path
       id="path652"
       style="fill:#fcfdfd;fill-opacity:1;fill-rule:nonzero;stroke:none;stroke-width:0.35277775"
       d="m 99.483733,117.47824 h 1.700397 v -1.95757 h -1.700397 z" />
    <path
       id="path654"
       style="fill:#fcfdfd;fill-opacity:1;fill-rule:nonzero;stroke:none;stroke-width:0.35277775"
       d="m 97.019578,117.47824 h 1.698978 v -1.95757 h -1.698978 z" />
    <path
       id="path656"
       style="fill:#fcfdfd;fill-opacity:1;fill-rule:nonzero;stroke:none;stroke-width:0.35277775"
       d="m 90.705914,102.68203 h 11.899556 v -0.31961 H 90.705914 Z" />
    <path
       id="path658"
       style="fill:#fcfdfd;fill-opacity:1;fill-rule:nonzero;stroke:none;stroke-width:0.35277775"
       d="m 112.58555,97.895193 h 11.9006 v -0.318907 h -11.9006 z" />
    <path
       id="path660"
       style="fill:#fcfdfd;fill-opacity:1;fill-rule:nonzero;stroke:none;stroke-width:0.35277775"
       d="m 101.41449,114.4881 h -5.682904 v -0.27482 h 5.682904 z" />
    <g
       transform="matrix(0.35277777,0,0,-0.35277777,104.8315,134.19888)"
       id="g710"
       style="stroke:#ffffff;stroke-opacity:1;stroke-width:2.8346458;stroke-miterlimit:4;stroke-dasharray:none;stroke-linejoin:miter;stroke-linecap:butt;paint-order:stroke markers fill">
      <path
         id="path712"
         style="fill:#0c090d;fill-opacity:1;fill-rule:nonzero;stroke:#ffffff;stroke-opacity:1;stroke-width:2.8346458;stroke-miterlimit:4;stroke-dasharray:none;stroke-linejoin:miter;stroke-linecap:butt;paint-order:stroke markers fill"
         d="m 0,0 c -0.054,-0.051 -0.099,-0.135 -0.139,-0.253 -0.041,-0.118 -0.071,-0.2 -0.097,-0.256 -0.054,-0.075 -0.097,-0.533 -0.136,-1.37 -0.039,-0.837 -0.074,-1.83 -0.102,-2.98 -0.023,-1.152 -0.036,-2.345 -0.036,-3.585 0,-1.244 0.036,-2.324 0.116,-3.24 0.078,-0.756 0.281,-1.493 0.608,-2.212 0.328,-0.719 0.872,-1.186 1.629,-1.391 0.574,-0.056 1.116,0.03 1.628,0.252 0.509,0.222 0.894,0.597 1.155,1.117 0.287,0.601 0.412,1.236 0.372,1.901 -0.039,0.668 0.007,1.33 0.14,1.983 0.363,-0.052 0.774,-0.068 1.231,-0.039 0.458,0.024 0.922,0.039 1.395,0.039 0.471,0 0.933,-0.015 1.389,-0.039 0.459,-0.029 0.87,-0.094 1.238,-0.198 0.443,-1.359 0.559,-2.71 0.352,-4.057 -0.21,-1.347 -0.666,-2.557 -1.375,-3.627 -0.705,-1.073 -1.624,-1.952 -2.762,-2.647 -1.135,-0.692 -2.424,-1.054 -3.862,-1.078 -0.94,-0.128 -1.907,-0.135 -2.9,-0.019 -0.994,0.119 -1.924,0.377 -2.784,0.784 -0.865,0.405 -1.587,0.973 -2.179,1.705 -0.588,0.732 -0.934,1.648 -1.04,2.745 -0.053,0.943 -0.089,1.92 -0.115,2.941 -0.027,1.017 -0.047,2.162 -0.058,3.43 -0.014,1.268 -0.014,2.706 0,4.31 0.011,1.61 0.031,3.475 0.058,5.592 -0.053,0.444 -0.032,0.896 0.057,1.352 0.09,0.455 0.218,0.881 0.374,1.274 0.235,0.68 0.528,1.305 0.88,1.881 0.356,0.575 0.78,1.086 1.277,1.53 0.287,0.21 0.601,0.384 0.941,0.53 0.34,0.143 0.689,0.269 1.061,0.372 C -0.485,7.14 0.703,7.296 1.88,7.22 3.059,7.14 4.158,6.87 5.197,6.411 6.228,5.957 7.162,5.345 7.997,4.592 8.835,3.834 9.501,2.962 9.994,1.98 c 0.501,-0.977 0.8,-2.042 0.905,-3.193 0.104,-1.15 -0.052,-2.325 -0.469,-3.53 C 9.463,-4.952 8.515,-5.024 7.587,-4.956 6.657,-4.892 5.7,-4.767 4.703,-4.585 4.626,-4.089 4.581,-3.526 4.567,-2.899 4.554,-2.272 4.483,-1.69 4.351,-1.153 4.221,-0.62 3.98,-0.179 3.625,0.159 3.272,0.497 2.718,0.656 1.96,0.627 1.621,0.577 1.262,0.515 0.88,0.436 0.504,0.354 0.207,0.213 0,0" />
    </g>
    <g
       transform="matrix(0.35277777,0,0,-0.35277777,113.18587,134.32221)"
       id="g714"
       style="stroke:#ffffff;stroke-opacity:1;stroke-width:2.8346458;stroke-miterlimit:4;stroke-dasharray:none;stroke-linejoin:miter;stroke-linecap:butt;paint-order:stroke markers fill">
      <path
         id="path716"
         style="fill:#0c090d;fill-opacity:1;fill-rule:nonzero;stroke:#ffffff;stroke-opacity:1;stroke-width:2.8346458;stroke-miterlimit:4;stroke-dasharray:none;stroke-linejoin:miter;stroke-linecap:butt;paint-order:stroke markers fill"
         d="m 0,0 c -0.653,0.522 -1.413,0.854 -2.274,1.001 -0.862,0.14 -1.71,0.11 -2.55,-0.099 -0.054,0 -0.093,-0.013 -0.115,-0.038 0.022,-0.47 0.03,-0.968 0.016,-1.492 -0.014,-0.522 -0.014,-1.048 0,-1.566 0.014,-0.526 0.041,-1.031 0.079,-1.513 0.041,-0.485 0.126,-0.919 0.255,-1.313 h 0.119 c 0.417,0.027 0.865,0.046 1.334,0.058 0.469,0.014 0.934,0.046 1.389,0.097 0.459,0.055 0.903,0.154 1.334,0.299 0.433,0.142 0.803,0.369 1.12,0.685 0.204,0.287 0.356,0.612 0.448,0.977 0.093,0.367 0.104,0.733 0.039,1.097 C 1.132,-1.44 0.999,-1.098 0.804,-0.785 0.607,-0.471 0.341,-0.21 0,0 m 6.86,-1.646 v -0.04 -0.528 C 6.86,-2.388 6.846,-2.55 6.821,-2.706 6.665,-3.96 6.254,-5.111 5.586,-6.158 4.921,-7.202 4.091,-8.09 3.098,-8.821 c -0.994,-0.736 -2.092,-1.264 -3.295,-1.588 -1.201,-0.329 -2.433,-0.388 -3.686,-0.178 0.026,-0.366 0.04,-0.726 0.04,-1.08 v -1.527 c 0,-0.668 0.005,-1.561 0.021,-2.689 0.011,-1.12 0.045,-2.638 0.095,-4.545 v -0.039 c -0.026,0 -0.045,-0.008 -0.057,-0.018 -0.016,-0.016 -0.031,-0.023 -0.059,-0.023 -0.366,-0.102 -0.83,-0.174 -1.388,-0.217 -0.567,-0.036 -1.154,-0.064 -1.766,-0.078 -0.618,-0.013 -1.226,-0.004 -1.826,0.023 -0.601,0.024 -1.125,0.064 -1.572,0.116 -0.074,1.907 -0.115,3.979 -0.115,6.216 v 6.88 c 0,2.353 -0.005,4.716 -0.019,7.097 -0.011,2.381 -0.058,4.655 -0.138,6.823 1.073,0.289 2.243,0.495 3.511,0.627 1.268,0.129 2.535,0.143 3.801,0.041 C -2.086,6.911 -0.849,6.684 0.354,6.334 1.554,5.979 2.619,5.456 3.548,4.764 4.475,4.071 5.241,3.201 5.842,2.155 6.442,1.111 6.782,-0.159 6.86,-1.646" />
    </g>
    <g
       transform="matrix(0.35277777,0,0,-0.35277777,121.90022,131.92957)"
       id="g718"
       style="stroke:#ffffff;stroke-opacity:1;stroke-width:2.8346458;stroke-miterlimit:4;stroke-dasharray:none;stroke-linejoin:miter;stroke-linecap:butt;paint-order:stroke markers fill">
      <path
         id="path720"
         style="fill:#0c090d;fill-opacity:1;fill-rule:nonzero;stroke:#ffffff;stroke-opacity:1;stroke-width:2.8346458;stroke-miterlimit:4;stroke-dasharray:none;stroke-linejoin:miter;stroke-linecap:butt;paint-order:stroke markers fill"
         d="m 0,0 1.057,-27.446 c -0.446,-0.077 -0.92,-0.131 -1.433,-0.158 -0.507,-0.023 -1.003,-0.038 -1.488,-0.038 h -1.411 c -0.455,0 -0.844,-0.014 -1.159,-0.042 h -0.039 c -0.129,0.867 -0.214,1.762 -0.25,2.689 -0.043,0.928 -0.067,1.849 -0.082,2.766 -0.011,0.912 -0.034,1.826 -0.055,2.742 -0.033,0.917 -0.095,1.793 -0.201,2.627 l -0.037,0.039 c -0.759,0.133 -1.515,0.197 -2.273,0.197 -0.76,0 -1.515,-0.091 -2.277,-0.274 -0.078,-0.917 -0.112,-1.819 -0.094,-2.706 0.01,-0.891 0.029,-1.779 0.054,-2.667 0.025,-0.89 0.036,-1.759 0.021,-2.607 -0.013,-0.847 -0.085,-1.693 -0.216,-2.529 -0.312,-0.182 -0.73,-0.277 -1.257,-0.277 -0.52,0 -1.043,0.028 -1.565,0.08 -0.523,0.052 -1.012,0.095 -1.469,0.118 -0.461,0.027 -0.806,-0.023 -1.039,-0.156 -0.053,0.733 -0.113,1.728 -0.179,3 -0.064,1.264 -0.123,2.692 -0.173,4.275 -0.052,1.58 -0.101,3.257 -0.14,5.035 -0.039,1.777 -0.072,3.563 -0.097,5.353 -0.028,1.791 -0.034,3.515 -0.018,5.174 0.008,1.662 0.031,3.158 0.057,4.493 v 0.038 h 0.038 0.079 c 0.393,-0.078 0.804,-0.104 1.237,-0.078 0.43,0.025 0.86,0.051 1.292,0.078 0.432,0.026 0.856,0.04 1.273,0.04 0.421,0 0.812,-0.055 1.178,-0.158 0.237,-1.802 0.352,-3.556 0.352,-5.252 0,-1.703 0.16,-3.386 0.472,-5.06 h 0.037 c 0.653,-0.155 1.36,-0.204 2.118,-0.138 0.757,0.067 1.464,0.125 2.118,0.179 h 0.039 c 0.155,1.799 0.241,3.487 0.256,5.056 0.013,1.57 -0.021,3.295 -0.101,5.176 0.314,0.104 0.697,0.197 1.159,0.277 0.456,0.075 0.937,0.133 1.43,0.174 0.494,0.039 0.987,0.052 1.472,0.039 C -0.834,0.047 -0.396,0.027 0,0" />
    </g>
    <g
       transform="matrix(0.35277777,0,0,-0.35277777,85.618541,122.04318)"
       id="g722">
      <path
         id="path724"
         style="fill:#0c090d;fill-opacity:1;fill-rule:nonzero;stroke:#ffffff;stroke-opacity:1;stroke-width:2.8346458;stroke-miterlimit:4;stroke-dasharray:none;stroke-linejoin:miter;stroke-linecap:butt;paint-order:stroke markers fill"
         d="m 0,0 c -0.248,-0.691 -0.396,-1.406 -0.445,-2.143 -0.051,-0.743 -0.076,-1.459 -0.076,-2.147 0,-1.231 0.151,-2.428 0.447,-3.588 0.295,-1.157 0.74,-2.192 1.331,-3.104 0.592,-0.914 1.306,-1.642 2.145,-2.183 0.836,-0.541 1.775,-0.814 2.809,-0.814 1.233,0 2.206,0.273 2.925,0.814 0.711,0.541 1.257,1.28 1.626,2.219 0.371,0.935 0.59,2.06 0.666,3.365 0.071,1.306 0.109,2.747 0.109,4.327 0,1.923 -0.038,3.441 -0.109,4.547 C 11.352,2.405 11.169,3.256 10.873,3.848 10.577,4.438 10.119,4.819 9.504,4.993 8.887,5.167 8.061,5.252 7.028,5.252 5.004,5.252 3.39,4.808 2.179,3.922 0.973,3.034 0.245,1.728 0,0 m 11.463,27.885 v 0.814 c 0,0.046 0.336,0.109 1.001,0.186 0.663,0.074 1.476,0.121 2.439,0.145 0.962,0.024 1.982,0.024 3.071,0 1.083,-0.024 2.021,-0.111 2.81,-0.257 v -4.881 c 0,-8.238 0.122,-16.371 0.368,-24.408 0.248,-8.037 0.273,-15.606 0.075,-22.708 -1.529,0 -3.206,-0.039 -5.029,-0.111 -1.827,-0.074 -3.479,-0.012 -4.956,0.184 -0.052,0.098 -0.073,0.272 -0.073,0.518 0,0.495 -0.015,0.887 -0.036,1.185 -0.029,0.296 -0.039,0.714 -0.039,1.257 -0.1,0.245 -0.21,0.431 -0.332,0.553 -0.123,0.124 -0.261,0.039 -0.408,-0.257 -0.738,-1.48 -1.725,-2.431 -2.958,-2.848 -1.232,-0.42 -2.542,-0.533 -3.921,-0.332 -2.809,0.196 -5.028,0.924 -6.656,2.183 -1.629,1.254 -2.848,2.858 -3.663,4.804 -0.81,1.947 -1.357,4.131 -1.624,6.548 -0.272,2.417 -0.434,4.858 -0.485,7.321 0,1.727 0.113,3.405 0.336,5.03 0.221,1.627 0.566,3.118 1.037,4.476 0.468,1.356 1.082,2.514 1.847,3.476 0.764,0.961 1.685,1.637 2.774,2.033 1.332,0.494 2.798,0.803 4.402,0.927 1.602,0.12 3.118,0.12 4.547,0 1.43,-0.124 2.639,-0.36 3.626,-0.704 0.984,-0.345 1.526,-0.742 1.626,-1.185 -0.052,2.317 -0.073,4.192 -0.073,5.622 v 3.442 c 0,0.858 0.01,1.524 0.034,1.993 0.026,0.47 0.051,0.915 0.076,1.332 0.023,0.418 0.047,0.888 0.073,1.406 0.024,0.518 0.063,1.268 0.111,2.256" />
    </g>
    <g
       transform="matrix(0.35277777,0,0,-0.35277777,94.829357,111.44951)"
       id="g726"
       style="stroke:#ffffff;stroke-opacity:1;stroke-width:2.8346458;stroke-miterlimit:4;stroke-dasharray:none;stroke-linejoin:miter;stroke-linecap:butt;paint-order:stroke markers fill">
      <path
         id="path728"
         style="fill:#0c090d;fill-opacity:1;fill-rule:nonzero;stroke:#ffffff;stroke-opacity:1;stroke-width:2.8346458;stroke-miterlimit:4;stroke-dasharray:none;stroke-linejoin:miter;stroke-linecap:butt;paint-order:stroke markers fill"
         d="m 0,0 9.837,-0.222 c 0,-0.294 0.013,-0.827 0.036,-1.589 0.023,-0.766 0.051,-1.603 0.075,-2.515 0.027,-0.911 0.048,-1.85 0.074,-2.813 0.022,-0.958 0.037,-1.811 0.037,-2.549 -0.199,-0.297 -0.639,-0.496 -1.332,-0.591 -0.692,-0.101 -1.491,-0.137 -2.405,-0.113 -0.912,0.027 -1.91,0.075 -2.996,0.15 -1.083,0.074 -2.097,0.084 -3.032,0.035 0,1.429 -0.061,2.922 -0.184,4.475 C -0.015,-4.179 -0.051,-2.268 0,0 m 0.443,-26.479 v 9.912 c 0.786,-0.099 1.616,-0.123 2.479,-0.075 0.863,0.048 1.71,0.113 2.549,0.186 0.84,0.072 1.642,0.135 2.405,0.184 0.764,0.049 1.466,0.026 2.108,-0.074 0.147,-1.184 0.224,-2.601 0.224,-4.252 0,-1.655 -0.014,-3.304 -0.036,-4.957 -0.028,-1.65 -0.065,-3.229 -0.113,-4.732 -0.049,-1.503 -0.028,-2.699 0.072,-3.587 0,-2.417 0.013,-4.723 0.041,-6.916 0.022,-2.194 0.022,-4.363 0,-6.51 -0.028,-2.144 -0.128,-4.315 -0.299,-6.508 C 9.699,-56 9.42,-58.282 9.021,-60.651 c -0.642,-1.529 -1.688,-2.734 -3.14,-3.621 -1.455,-0.889 -3.121,-1.554 -4.992,-2 -1.877,-0.443 -3.872,-0.725 -5.993,-0.85 -2.12,-0.122 -4.167,-0.136 -6.14,-0.038 -0.244,0.742 -0.406,1.557 -0.479,2.441 -0.075,0.889 -0.09,1.775 -0.038,2.664 0.05,0.888 0.122,1.751 0.222,2.587 0.099,0.841 0.196,1.606 0.295,2.294 0.841,-0.047 1.813,-0.047 2.922,0 1.11,0.049 2.208,0.185 3.291,0.405 1.085,0.223 2.097,0.533 3.034,0.925 0.933,0.396 1.65,0.939 2.144,1.628 0.05,2.072 0.075,4.316 0.075,6.731 v 7.322 c 0,2.466 0.011,4.883 0.037,7.248 0.026,2.37 0.084,4.514 0.184,6.436" />
    </g>
    <g
       transform="matrix(0.35277777,0,0,-0.35277777,103.17891,122.46006)"
       id="g730"
       style="stroke:#ffffff;stroke-opacity:1;stroke-width:2.8346458;stroke-miterlimit:4;stroke-dasharray:none;stroke-linejoin:miter;stroke-linecap:butt;paint-order:stroke markers fill">
      <path
         id="path732"
         style="fill:#0c090d;fill-opacity:1;fill-rule:nonzero;stroke:#ffffff;stroke-opacity:1;stroke-width:2.8346458;stroke-miterlimit:4;stroke-dasharray:none;stroke-linejoin:miter;stroke-linecap:butt;paint-order:stroke markers fill"
         d="m 0,0 c -0.198,-0.642 -0.321,-1.296 -0.372,-1.961 -0.048,-0.666 -0.071,-1.32 -0.071,-1.959 0,-2.22 0.58,-4.105 1.736,-5.659 1.16,-1.553 2.777,-2.33 4.846,-2.33 1.232,0 2.158,0.209 2.774,0.628 0.615,0.419 1.061,1.01 1.331,1.775 0.27,0.765 0.417,1.702 0.446,2.81 0.023,1.109 0.037,2.356 0.037,3.736 0,1.727 -0.014,3.093 -0.037,4.106 -0.029,1.01 -0.15,1.787 -0.373,2.33 C 10.094,4.017 9.726,4.361 9.209,4.51 8.69,4.657 7.914,4.732 6.879,4.732 4.858,4.732 3.266,4.25 2.107,3.29 0.95,2.327 0.248,1.231 0,0 m 21.523,14.716 c 0.051,-0.294 0.086,-0.589 0.111,-0.885 0.024,-0.297 0.038,-0.593 0.038,-0.89 V 12.205 C 21.523,6.877 21.547,1.64 21.748,-3.515 c 0.194,-5.152 0.12,-10.366 -0.225,-15.645 0,-0.64 -0.012,-1.28 -0.036,-1.922 -0.025,-0.642 -0.334,-1.013 -0.925,-1.107 h -0.886 c -0.789,0 -1.593,0.036 -2.405,0.108 -0.814,0.075 -1.617,0.111 -2.404,0.111 -0.545,0 -1.072,-0.036 -1.592,-0.111 -0.515,-0.072 -1.048,-0.108 -1.588,-0.108 -0.345,0.094 -0.582,0.295 -0.706,0.59 -0.122,0.295 -0.185,0.643 -0.185,1.035 0,0.542 0.051,0.987 0.149,1.334 0.1,0.343 0.151,0.763 0.151,1.253 -1.185,-1.183 -2.678,-2.192 -4.475,-3.028 -1.802,-0.842 -3.563,-1.259 -5.29,-1.259 -1.923,0 -3.562,0.665 -4.918,1.997 -1.357,1.33 -2.478,2.983 -3.365,4.954 -0.891,1.974 -1.541,4.12 -1.96,6.436 -0.421,2.315 -0.628,4.463 -0.628,6.435 0,2.463 0.318,4.734 0.963,6.803 0.637,2.073 1.513,3.861 2.624,5.365 1.107,1.503 2.426,2.686 3.955,3.55 1.527,0.862 3.155,1.318 4.883,1.368 0.886,0 1.713,-0.012 2.476,-0.037 0.766,-0.024 1.467,-0.149 2.109,-0.371 0.639,-0.22 1.209,-0.566 1.703,-1.035 0.491,-0.468 0.912,-1.12 1.257,-1.961 -0.051,0.789 -0.012,1.467 0.11,2.036 0.121,0.565 0.187,1.146 0.187,1.74 0,0.047 0.157,0.084 0.479,0.108 0.321,0.025 0.679,0.025 1.071,0 0.397,-0.024 0.789,-0.036 1.185,-0.036 h 0.815 c 0.835,-0.051 1.86,-0.1 3.069,-0.15 1.205,-0.048 2.599,-0.123 4.177,-0.222" />
    </g>
    <g
       transform="matrix(0.35277777,0,0,-0.35277777,116.14691,118.62498)"
       id="g734"
       style="stroke:#ffffff;stroke-opacity:1;stroke-width:2.8346458;stroke-miterlimit:4;stroke-dasharray:none;stroke-linejoin:miter;stroke-linecap:butt;paint-order:stroke markers fill">
      <path
         id="path736"
         style="fill:#0c090d;fill-opacity:1;fill-rule:nonzero;stroke:#ffffff;stroke-opacity:1;stroke-width:2.8346458;stroke-miterlimit:4;stroke-dasharray:none;stroke-linejoin:miter;stroke-linecap:butt;paint-order:stroke markers fill"
         d="m 0,0 c 0.247,0.149 0.555,0.32 0.928,0.519 0.366,0.195 0.674,0.39 0.92,0.593 1.037,0.739 2.195,1.329 3.476,1.773 1.283,0.444 2.6,0.689 3.961,0.739 1.353,0.05 2.672,-0.098 3.956,-0.442 1.28,-0.348 2.441,-0.963 3.475,-1.848 0.493,-0.446 0.876,-1.37 1.146,-2.776 0.273,-1.407 0.445,-3.096 0.519,-5.068 0.072,-1.969 0.096,-4.128 0.072,-6.469 -0.026,-2.345 -0.062,-4.71 -0.108,-7.103 -0.05,-2.389 -0.099,-4.695 -0.151,-6.912 -0.048,-2.223 -0.026,-4.17 0.077,-5.847 -1.729,-0.245 -3.269,-0.356 -4.625,-0.333 -1.356,0.027 -2.899,0.039 -4.622,0.039 -0.102,1.133 -0.149,2.414 -0.149,3.847 0,1.428 0.012,2.907 0.038,4.436 0.025,1.53 0.025,3.056 0,4.585 -0.026,1.53 -0.09,2.96 -0.186,4.291 -0.051,0.591 -0.098,1.245 -0.147,1.961 -0.05,0.714 -0.137,1.416 -0.258,2.107 -0.125,0.689 -0.299,1.304 -0.518,1.849 -0.223,0.543 -0.533,0.962 -0.927,1.257 -0.047,0.051 -0.099,0.074 -0.147,0.074 -0.05,0 -0.101,0.026 -0.149,0.075 C 6.187,-8.457 5.608,-8.296 4.844,-8.172 4.079,-8.049 3.326,-8.097 2.589,-8.32 1.848,-8.544 1.183,-8.987 0.591,-9.649 0,-10.319 -0.347,-11.315 -0.443,-12.646 c -0.101,-1.725 -0.123,-3.414 -0.075,-5.069 0.048,-1.652 0.114,-3.304 0.184,-4.956 0.074,-1.651 0.109,-3.289 0.109,-4.916 0,-1.63 -0.097,-3.255 -0.293,-4.883 v -0.295 c -0.838,-0.248 -1.565,-0.394 -2.181,-0.445 -0.619,-0.049 -1.246,-0.061 -1.887,-0.036 -0.643,0.024 -1.356,0.063 -2.143,0.111 -0.792,0.049 -1.778,0.024 -2.96,-0.075 0,6.064 -0.063,12.131 -0.186,18.197 -0.122,6.064 -0.087,12.353 0.112,18.858 0.589,-0.048 1.083,-0.084 1.478,-0.109 0.393,-0.024 0.764,-0.038 1.11,-0.038 0.347,0 0.716,0.014 1.113,0.038 0.392,0.025 0.884,0.061 1.476,0.109 0.196,0 0.541,0.039 1.036,0.111 0.491,0.077 0.987,0.138 1.479,0.189 0.491,0.046 0.935,0.057 1.331,0.034 C -0.347,4.153 -0.148,4.067 -0.148,3.922 -0.051,3.08 -0.012,2.394 -0.035,1.851 -0.062,1.307 -0.051,0.692 0,0" />
    </g>
    <g
       transform="matrix(0.35277777,0,0,-0.35277777,127.00174,124.07822)"
       id="g738"
       style="stroke:#ffffff;stroke-opacity:1;stroke-width:2.8346458;stroke-miterlimit:4;stroke-dasharray:none;stroke-linejoin:miter;stroke-linecap:butt;paint-order:stroke markers fill">
      <path
         id="path740"
         style="fill:#0c090d;fill-opacity:1;fill-rule:nonzero;stroke:#ffffff;stroke-opacity:1;stroke-width:2.8346458;stroke-miterlimit:4;stroke-dasharray:none;stroke-linejoin:miter;stroke-linecap:butt;paint-order:stroke markers fill"
         d="m 0,0 v -0.667 c 0,-2.514 0.738,-4.657 2.217,-6.436 0.887,-1.08 2.072,-1.734 3.55,-1.958 1.479,-0.221 2.86,-0.135 4.141,0.259 0.447,0.149 0.792,0.383 1.037,0.703 0.246,0.322 0.445,0.69 0.592,1.108 0.151,0.421 0.262,0.863 0.333,1.334 0.074,0.468 0.134,0.925 0.186,1.367 0,1.971 -0.038,3.982 -0.112,6.028 -0.074,2.046 -0.356,4.006 -0.851,5.88 -0.294,0.738 -0.777,1.32 -1.44,1.737 C 8.986,9.775 8.256,10.033 7.471,10.133 6.682,10.231 5.905,10.171 5.141,9.947 4.373,9.725 3.698,9.366 3.104,8.876 2.366,8.037 1.736,7.112 1.221,6.102 0.705,5.091 0.344,4.019 0.146,2.883 0.049,2.392 0,1.908 0,1.443 Z m 12.797,-32.322 c -0.495,-0.099 -1.383,-0.124 -2.664,-0.074 -1.282,0.05 -2.935,0.074 -4.956,0.074 -2.319,0 -4.392,0.494 -6.212,1.477 -1.825,0.987 -3.307,2.321 -4.438,3.995 -0.198,0.347 -0.383,0.803 -0.557,1.37 -0.171,0.564 -0.322,1.147 -0.442,1.739 -0.126,0.591 -0.198,1.158 -0.221,1.701 -0.027,0.54 -0.015,1.01 0.035,1.403 0.492,0.199 1.158,0.334 1.998,0.408 0.839,0.073 1.709,0.099 2.626,0.073 0.91,-0.023 1.8,-0.073 2.663,-0.147 0.862,-0.073 1.588,-0.162 2.184,-0.259 0,-1.281 0.405,-2.303 1.217,-3.068 0.816,-0.765 1.725,-1.195 2.739,-1.297 1.007,-0.097 1.995,0.149 2.957,0.74 0.96,0.594 1.59,1.58 1.886,2.959 0.048,0.493 0.096,0.999 0.144,1.517 0.051,0.517 0.051,0.975 0,1.368 -0.096,0.835 -0.096,1.703 0,2.589 -0.491,-0.545 -1.07,-0.939 -1.734,-1.184 -0.666,-0.247 -1.381,-0.42 -2.147,-0.517 -0.764,-0.1 -1.541,-0.148 -2.327,-0.148 -0.789,0 -1.53,-0.025 -2.219,-0.074 -0.939,0 -1.889,0.074 -2.85,0.222 -0.961,0.148 -1.875,0.394 -2.737,0.738 -0.861,0.348 -1.638,0.818 -2.33,1.405 -0.689,0.594 -1.258,1.359 -1.701,2.294 -0.69,1.33 -1.182,2.724 -1.478,4.181 -0.296,1.453 -0.495,2.944 -0.591,4.472 0,2.319 0.048,4.81 0.148,7.47 0.098,2.664 0.527,5.167 1.295,7.508 0.762,2.344 1.982,4.315 3.658,5.918 1.68,1.602 4.094,2.501 7.251,2.699 1.576,0.1 3.042,-0.11 4.403,-0.627 1.353,-0.518 2.328,-1.469 2.919,-2.848 0.197,-0.1 0.306,-0.012 0.334,0.261 0.022,0.267 0.022,0.615 0,1.034 -0.028,0.417 -0.05,0.835 -0.075,1.256 -0.026,0.419 0.037,0.753 0.181,0.997 1.631,0.2 3.283,0.26 4.961,0.188 1.676,-0.077 3.351,-0.111 5.03,-0.111 0.196,-6.164 0.306,-12.612 0.33,-19.343 0.025,-6.731 -0.11,-13.647 -0.409,-20.748 -0.046,-1.183 -0.046,-2.352 0,-3.511 0.051,-1.161 -0.169,-2.134 -0.664,-2.924 -0.69,-1.082 -1.393,-1.948 -2.106,-2.588 -0.716,-0.642 -1.419,-1.147 -2.109,-1.517 -0.691,-0.368 -1.381,-0.629 -2.073,-0.777 -0.69,-0.146 -1.329,-0.244 -1.919,-0.294" />
    </g>
    <g
       transform="matrix(0.35277777,0,0,-0.35277777,140.10137,121.8892)"
       id="g742"
       style="stroke:#ffffff;stroke-opacity:1;stroke-width:2.8346458;stroke-miterlimit:4;stroke-dasharray:none;stroke-linejoin:miter;stroke-linecap:butt;paint-order:stroke markers fill">
      <path
         id="path744"
         style="fill:#0c090d;fill-opacity:1;fill-rule:nonzero;stroke:#ffffff;stroke-opacity:1;stroke-width:2.8346458;stroke-miterlimit:4;stroke-dasharray:none;stroke-linejoin:miter;stroke-linecap:butt;paint-order:stroke markers fill"
         d="m 0,0 c -0.302,-0.199 -0.521,-0.694 -0.669,-1.481 -0.195,-1.578 -0.296,-3.141 -0.296,-4.695 0,-1.554 -0.05,-3.195 -0.147,-4.922 -0.049,-1.133 0.248,-2.009 0.888,-2.622 0.64,-0.618 1.416,-1.037 2.329,-1.259 0.913,-0.224 1.859,-0.27 2.849,-0.147 0.986,0.121 1.796,0.356 2.439,0.699 0.841,0.394 1.402,1.211 1.702,2.444 0.198,1.577 0.355,3.167 0.477,4.768 0.126,1.605 0.04,3.119 -0.255,4.553 C 9.069,-0.939 8.357,0.318 7.17,1.107 5.986,1.895 4.436,2.069 2.51,1.625 1.476,1.329 0.639,0.785 0,0 m -9.246,8.727 c 0.342,0.738 0.897,1.379 1.664,1.92 0.762,0.542 1.647,1.001 2.661,1.373 1.01,0.367 2.093,0.626 3.253,0.777 1.161,0.145 2.331,0.22 3.512,0.22 0.986,-0.1 1.937,-0.11 2.846,-0.038 0.915,0.076 1.889,0.061 2.923,-0.037 1.581,-0.1 3.084,-0.406 4.512,-0.922 1.431,-0.518 2.664,-1.273 3.698,-2.26 0.691,-0.442 1.232,-1.158 1.63,-2.143 0.397,-0.987 0.691,-2.132 0.888,-3.441 0.195,-1.304 0.319,-2.735 0.368,-4.287 0.049,-1.553 0.1,-3.145 0.148,-4.771 -0.048,-1.432 -0.111,-3.058 -0.186,-4.882 -0.071,-1.826 -0.195,-3.575 -0.371,-5.252 -0.169,-1.675 -0.393,-3.181 -0.663,-4.512 -0.27,-1.333 -0.652,-2.243 -1.149,-2.739 -0.837,-1.182 -1.933,-2.021 -3.287,-2.511 -1.359,-0.494 -2.828,-0.802 -4.406,-0.925 -1.574,-0.123 -3.202,-0.123 -4.882,0 -1.673,0.123 -3.203,0.185 -4.582,0.185 -2.513,0.445 -4.636,1.528 -6.361,3.251 -1.331,1.185 -2.245,2.665 -2.735,4.442 -0.495,1.773 -0.791,3.635 -0.887,5.581 -0.1,1.949 -0.112,3.91 -0.039,5.883 0.072,1.969 0.039,3.769 -0.111,5.396 0,0.889 0.027,1.766 0.073,2.63 0.049,0.861 0.149,1.758 0.296,2.698 0.049,0.541 0.224,1.27 0.518,2.18 0.297,0.913 0.519,1.642 0.669,2.184" />
    </g>
  </g>
</svg>
